<?xml version="1.0" standalone="no"?>
<!DOCTYPE svg PUBLIC "-//W3C//DTD SVG 20010904//EN"
 "http://www.w3.org/TR/2001/REC-SVG-20010904/DTD/svg10.dtd">
<svg version="1.0" xmlns="http://www.w3.org/2000/svg"
 width="2100.000000pt" height="2100.000000pt" viewBox="0 0 2100.000000 2100.000000"
 preserveAspectRatio="xMidYMid meet">

<g transform="translate(0.000000,2100.000000) scale(0.100000,-0.100000)"
fill="#000000" stroke="none">
<path d="M10150 18840 c-107 -4 -222 -8 -255 -9 -33 -1 -65 -5 -72 -9 -9 -5
-9 -43 0 -155 l10 -147 73 0 73 0 65 -202 c149 -467 326 -1110 326 -1188 l0
-30 189 0 c103 0 215 -3 249 -6 l61 -7 6 29 c18 92 35 152 107 373 93 284 175
517 283 799 l78 202 41 -6 c23 -3 55 -7 72 -10 l31 -4 18 150 c10 83 16 153
13 156 -7 6 -355 41 -493 49 -60 3 -133 8 -162 11 l-51 5 -6 -53 c-3 -29 -7
-99 -9 -155 l-3 -103 41 0 c71 0 71 3 11 -212 -44 -159 -163 -622 -190 -740
-8 -34 -34 -37 -41 -5 -2 12 -23 119 -45 237 -23 118 -66 326 -96 462 -29 135
-54 251 -54 257 0 7 22 11 55 11 l55 0 0 149 c0 146 0 149 -22 155 -25 6 -65
6 -358 -4z"/>
<path d="M8970 18724 c-129 -23 -207 -51 -243 -88 -33 -33 -34 -33 -63 -18
-55 30 -158 19 -396 -42 -264 -67 -305 -84 -361 -146 -88 -97 -88 -158 -2
-426 82 -253 93 -268 230 -308 354 -105 693 -223 706 -248 19 -36 41 -166 30
-185 -7 -14 -42 -26 -132 -47 -68 -16 -129 -30 -135 -33 -26 -10 -51 36 -79
146 l-29 113 -31 -6 c-16 -3 -100 -27 -186 -52 l-156 -46 73 -226 c41 -125 81
-251 91 -279 9 -29 22 -53 28 -53 19 0 148 46 193 69 23 12 49 34 59 49 9 15
18 28 19 30 1 2 16 -4 33 -12 16 -9 50 -16 74 -16 56 0 446 84 485 104 62 32
113 109 126 191 7 40 -40 377 -65 470 -18 65 -69 106 -194 154 -187 72 -345
127 -526 181 -96 29 -179 58 -185 64 -13 13 -44 126 -44 160 0 13 6 29 14 35
7 6 93 30 191 53 l177 43 18 -22 c9 -12 28 -72 40 -133 18 -85 27 -110 39
-110 26 1 382 68 388 73 4 5 -64 456 -83 550 -3 15 -11 27 -17 26 -7 -1 -46
-7 -87 -15z"/>
<path d="M11940 18711 c0 -3 -11 -69 -25 -145 -14 -77 -25 -143 -25 -147 0 -4
33 -13 73 -20 39 -7 73 -13 75 -14 1 -1 -35 -80 -79 -176 -101 -216 -247 -547
-324 -737 l-58 -144 -62 7 -62 6 -21 -148 c-11 -81 -18 -151 -14 -154 4 -3 47
-12 97 -18 49 -7 170 -28 268 -47 99 -19 181 -33 183 -31 2 1 19 69 37 149
l34 147 -36 6 c-65 11 -66 14 -30 99 22 49 39 76 49 75 8 0 101 -22 205 -47
216 -54 203 -43 190 -160 l-7 -64 -36 7 c-21 4 -43 8 -51 9 -9 1 -26 -44 -52
-143 -22 -79 -38 -145 -37 -147 2 -1 46 -14 98 -29 52 -14 173 -51 269 -81 95
-30 174 -54 175 -52 2 2 15 39 31 83 15 44 38 108 51 142 l23 62 -57 19 c-53
18 -57 21 -55 48 1 16 11 126 22 244 20 207 43 519 56 761 l7 117 75 -23 c52
-16 75 -20 78 -12 2 7 22 68 44 137 23 69 41 130 41 137 0 13 -86 41 -350 113
-276 75 -800 188 -800 171z m515 -419 c19 -13 -7 -682 -27 -682 -5 0 -62 13
-126 29 -64 16 -129 32 -144 35 -16 4 -28 11 -28 16 0 21 294 610 304 610 6 0
16 -4 21 -8z"/>
<path d="M7419 18315 c-47 -18 -106 -43 -130 -55 -50 -25 -119 -87 -119 -108
0 -10 -6 -11 -22 -5 -46 16 -132 6 -208 -25 -141 -56 -406 -184 -453 -218 -86
-62 -132 -181 -107 -275 12 -45 174 -349 217 -407 42 -56 84 -70 265 -87 269
-25 625 -76 651 -92 13 -8 77 -151 77 -172 0 -10 -6 -23 -13 -29 -27 -23 -242
-113 -262 -110 -14 2 -35 33 -75 110 -30 58 -58 109 -61 113 -4 3 -84 -33
-179 -80 l-171 -86 24 -42 c13 -23 77 -139 142 -257 65 -118 119 -216 120
-217 1 -2 37 16 80 40 93 49 165 114 165 146 0 19 3 21 23 14 60 -22 119 -8
292 66 266 114 273 118 305 168 35 55 54 132 46 184 -8 51 -130 391 -159 443
-12 22 -37 49 -55 59 -56 33 -387 90 -707 123 -223 22 -201 13 -241 100 -20
41 -34 85 -32 97 3 25 25 37 222 122 159 69 156 70 217 -79 24 -58 49 -106 55
-106 6 0 53 17 105 38 52 21 135 53 186 71 l92 33 -40 111 c-116 324 -152 423
-158 434 -4 8 -31 2 -92 -22z"/>
<path d="M13472 18150 c-29 -76 -52 -142 -52 -147 0 -5 25 -17 55 -28 30 -10
55 -22 55 -26 0 -8 -409 -1031 -415 -1037 -1 -1 -25 6 -53 17 l-50 20 -38 -97
c-20 -53 -45 -118 -55 -145 l-19 -48 23 -8 c304 -118 608 -259 883 -410 l91
-50 177 305 c98 168 176 307 174 308 -7 6 -247 136 -295 160 l-53 26 -85 -169
c-46 -93 -88 -172 -93 -175 -5 -3 -66 23 -135 57 l-127 62 229 495 c127 272
234 501 238 509 7 11 25 6 96 -27 l87 -41 65 129 c36 72 65 134 65 140 0 20
-377 190 -655 295 l-61 23 -52 -138z"/>
<path d="M14890 17458 c-41 -68 -76 -127 -77 -133 -2 -5 20 -23 47 -40 28 -16
49 -35 48 -41 -6 -24 -594 -934 -603 -934 -6 0 -28 12 -49 26 -21 14 -41 22
-45 18 -23 -26 -152 -246 -149 -253 2 -5 84 -63 183 -129 208 -137 408 -285
584 -431 l123 -103 24 23 c13 13 118 132 233 264 l210 240 -37 34 c-62 56
-265 221 -274 221 -4 0 -60 -68 -124 -150 -65 -83 -121 -149 -126 -148 -28 10
-226 165 -223 175 7 21 639 902 648 903 4 0 41 -25 83 -56 41 -31 77 -54 78
-52 16 20 164 216 173 229 11 14 -5 29 -120 111 -193 139 -510 348 -526 348
-4 0 -40 -55 -81 -122z"/>
<path d="M5634 17412 c-115 -77 -265 -181 -334 -232 -141 -105 -399 -310 -418
-332 -10 -12 5 -35 84 -129 53 -63 101 -113 107 -111 5 2 34 24 64 49 29 25
55 44 57 42 1 -2 38 -83 82 -179 43 -96 156 -329 250 -518 l172 -343 -46 -43
-46 -43 100 -111 c54 -60 103 -111 107 -111 4 -1 49 36 100 80 51 45 148 127
217 182 69 56 124 106 124 112 -1 7 -41 64 -89 128 l-87 117 -36 -30 c-20 -17
-40 -30 -44 -30 -8 0 -78 133 -78 148 0 7 107 88 296 225 l51 37 64 -60 c71
-66 71 -62 1 -110 -21 -15 -20 -16 63 -135 46 -66 88 -121 93 -123 5 -1 84 46
174 105 91 59 197 126 236 148 39 22 72 44 72 49 0 10 -140 255 -149 261 -4 2
-29 -10 -55 -27 l-49 -30 -271 269 c-149 148 -336 330 -416 405 l-145 136 67
41 66 42 -79 127 c-44 70 -83 128 -88 130 -4 1 -102 -60 -217 -136z m91 -594
c94 -83 207 -185 253 -227 l82 -76 -129 -93 c-71 -52 -133 -94 -137 -94 -7 1
-104 210 -213 464 -61 138 -69 178 -39 178 7 0 90 -68 183 -152z"/>
<path d="M10310 16570 l0 -70 55 0 55 0 0 -475 0 -475 -40 0 -40 0 0 -68 0
-69 238 -7 c130 -3 280 -11 332 -16 52 -5 96 -8 97 -6 6 6 36 316 31 321 -2 3
-32 8 -65 11 l-60 7 -6 -93 c-4 -52 -8 -94 -10 -95 -2 -3 -341 16 -344 19 -1
1 1 213 5 471 l7 470 45 3 c24 2 48 9 52 15 4 7 8 38 8 70 l0 57 -180 0 -180
0 0 -70z"/>
<path d="M16204 16523 c-39 -43 -85 -95 -104 -116 l-33 -38 46 -47 46 -47
-386 -408 -386 -408 -42 41 -41 41 -95 -103 c-53 -57 -99 -109 -103 -116 -6
-9 54 -77 196 -220 233 -237 445 -479 574 -657 17 -22 25 -27 35 -19 8 6 111
84 229 174 118 90 218 166 222 169 7 6 -108 158 -209 279 l-45 52 -89 -77
c-50 -43 -98 -84 -107 -90 -16 -11 -29 0 -107 89 -50 55 -101 115 -115 131
l-24 31 144 137 c139 131 146 137 164 121 20 -19 200 -222 257 -291 l37 -45
111 93 c61 51 111 96 111 99 -1 7 -130 159 -243 285 -38 42 -67 80 -65 85 6
15 289 277 299 277 5 0 68 -65 139 -145 l130 -145 -67 -60 c-37 -33 -84 -76
-105 -95 l-38 -35 112 -141 c62 -77 124 -155 139 -174 l25 -33 232 178 c128
97 232 180 232 184 0 11 -249 321 -378 471 -64 74 -231 251 -372 393 l-255
258 -71 -78z"/>
<path d="M9535 16570 c-244 -37 -687 -131 -708 -149 -6 -6 66 -300 77 -318 5
-7 129 32 132 42 3 7 -4 48 -15 91 -11 43 -17 82 -13 85 11 10 212 52 219 46
4 -5 192 -898 193 -919 0 -3 -18 -9 -41 -13 -39 -7 -40 -8 -34 -38 20 -97 25
-109 48 -103 12 2 75 15 140 27 110 21 118 24 113 43 -2 12 -8 43 -11 69 l-7
48 -42 -6 -42 -7 -83 462 c-46 254 -80 464 -77 467 7 8 143 32 182 32 31 1 31
0 38 -61 15 -126 10 -120 80 -112 33 4 62 8 64 9 3 2 -21 202 -34 288 -7 44
-3 44 -179 17z"/>
<path d="M11317 16573 c-3 -5 -8 -36 -12 -70 l-7 -63 36 0 c21 0 39 -6 42 -13
2 -7 -26 -220 -64 -472 l-68 -460 -36 3 -37 3 -7 -60 c-3 -33 -7 -64 -8 -68 0
-4 82 -21 184 -39 188 -33 371 -72 463 -99 28 -8 51 -14 53 -12 8 10 85 301
81 311 -4 11 -89 36 -121 36 -7 0 -18 -23 -25 -53 -6 -30 -16 -70 -21 -89
l-10 -35 -78 17 c-42 10 -129 28 -192 41 -63 12 -116 23 -118 24 -4 4 58 367
66 386 6 15 22 14 170 -16 90 -18 166 -35 168 -38 3 -3 1 -22 -5 -44 -6 -21
-11 -43 -11 -50 0 -11 106 -41 114 -32 8 10 87 331 82 336 -3 3 -30 11 -60 18
l-56 13 -10 -36 c-5 -21 -10 -43 -10 -49 0 -7 -5 -13 -11 -13 -12 0 -314 59
-335 65 -8 2 -1 62 22 196 18 105 35 193 37 195 8 8 436 -83 450 -96 5 -4 -1
-44 -13 -90 -12 -46 -18 -86 -13 -90 15 -13 136 -41 143 -33 4 4 24 71 45 148
21 77 40 145 42 151 7 20 -411 116 -707 164 -138 22 -157 24 -163 13z"/>
<path d="M8455 16310 c-205 -69 -420 -151 -557 -214 l-78 -35 25 -58 c14 -31
28 -59 31 -62 2 -3 19 1 37 7 18 7 36 14 40 15 5 1 94 -191 200 -427 175 -393
190 -430 173 -440 -50 -31 -50 -28 -20 -90 22 -42 33 -56 46 -53 50 13 228 94
228 103 0 9 -37 109 -45 122 -1 1 -18 -4 -37 -12 l-35 -15 -77 186 c-42 102
-73 190 -69 194 9 9 298 119 312 119 5 0 17 -22 26 -49 l16 -49 51 16 c28 9
52 22 55 28 2 7 -19 84 -48 172 l-52 160 -58 -20 c-33 -11 -59 -23 -59 -28 0
-4 7 -26 15 -50 l15 -42 -28 -10 c-15 -5 -90 -33 -167 -62 -107 -40 -142 -50
-148 -40 -8 13 -147 345 -147 351 0 7 418 163 437 163 5 0 21 -38 37 -85 15
-47 32 -85 37 -85 26 0 132 35 136 46 4 11 -71 275 -86 300 -4 8 -70 -10 -206
-56z"/>
<path d="M4355 16325 c-49 -20 -78 -43 -160 -127 -255 -263 -773 -906 -748
-928 25 -23 235 -170 242 -170 4 0 23 22 42 50 19 27 38 50 43 50 9 0 896
-659 896 -666 0 -2 -13 -23 -30 -46 -16 -22 -30 -44 -30 -48 0 -15 242 -182
250 -174 4 5 58 77 120 159 62 83 143 187 181 232 l69 81 -118 102 -117 101
-36 -42 c-26 -30 -40 -40 -50 -34 -38 23 -229 190 -229 199 1 6 19 31 40 56
l40 45 92 -24 c51 -13 194 -56 318 -94 124 -38 234 -71 245 -74 15 -3 55 31
163 140 l143 143 -107 113 -107 112 -47 -46 -46 -46 -175 52 c-96 29 -176 53
-177 55 -2 1 6 29 19 61 29 75 31 191 5 245 -10 20 -119 142 -242 271 -183
191 -233 238 -273 256 -67 28 -140 27 -216 -4z m109 -500 c186 -171 226 -211
226 -231 0 -22 -256 -321 -271 -316 -11 3 -359 292 -359 298 0 6 187 223 238
277 26 26 55 47 65 47 11 0 56 -34 101 -75z"/>
<path d="M12635 16198 c-10 -29 -20 -58 -22 -64 -3 -7 12 -17 31 -24 20 -6 36
-14 36 -17 0 -3 -53 -75 -118 -161 -130 -172 -270 -369 -380 -534 -72 -107
-72 -107 -102 -97 -16 6 -35 9 -41 7 -11 -4 -52 -118 -45 -125 5 -5 269 -93
272 -90 4 4 44 112 44 120 0 4 -13 13 -30 18 -16 6 -30 15 -30 20 0 16 101
149 113 149 15 0 95 -30 230 -87 84 -35 107 -49 103 -62 -3 -9 -10 -51 -17
-94 -13 -85 -8 -80 -70 -61 -11 4 -23 -11 -43 -56 -15 -34 -26 -62 -24 -64 14
-9 255 -116 260 -116 10 0 70 120 61 120 -5 0 -22 9 -40 19 -30 19 -31 21 -21
63 22 100 89 519 113 713 15 116 28 211 30 213 2 2 18 -4 35 -13 18 -9 36 -13
40 -8 18 19 52 115 44 123 -12 12 -379 160 -397 160 -7 0 -21 -24 -32 -52z
m125 -439 c-25 -232 -41 -339 -49 -339 -14 0 -261 105 -261 111 0 15 320 422
326 416 3 -2 -5 -87 -16 -188z"/>
<path d="M7306 15795 c-98 -56 -306 -186 -306 -191 0 -7 73 -114 77 -114 3 0
18 9 35 21 16 12 31 20 33 18 2 -2 26 -85 55 -184 28 -99 94 -310 147 -468
l96 -288 -32 -27 -33 -27 38 -50 c21 -27 39 -52 41 -54 3 -4 207 132 232 155
12 11 9 21 -19 66 -19 29 -35 55 -36 57 -2 2 -19 -6 -38 -18 l-34 -22 -22 68
c-12 38 -25 80 -30 95 -8 25 -4 29 113 101 67 40 139 84 160 97 l39 23 64 -64
c35 -35 64 -68 64 -75 0 -6 -11 -16 -25 -22 -32 -15 -31 -26 5 -89 l30 -52
127 66 c71 36 129 67 131 69 5 3 -57 124 -64 124 -3 0 -18 -7 -34 -15 l-29
-15 -349 350 -349 350 32 20 33 20 -30 55 c-16 30 -33 57 -37 59 -4 3 -42 -15
-85 -39z m264 -501 c74 -71 136 -131 138 -135 3 -6 -224 -149 -242 -152 -5 -1
-15 18 -23 43 -29 96 -123 445 -123 458 0 17 69 -43 250 -214z"/>
<path d="M13510 15792 l-65 -28 -232 -424 c-214 -393 -232 -429 -232 -476 -2
-98 4 -109 83 -155 39 -23 133 -83 209 -132 l139 -90 71 29 72 29 164 224 164
224 -29 24 c-42 33 -249 173 -257 173 -7 0 -77 -104 -77 -113 0 -2 34 -25 76
-51 51 -33 73 -53 70 -63 -3 -7 -54 -84 -112 -169 -70 -100 -112 -153 -121
-150 -7 3 -46 27 -85 54 -40 27 -112 72 -160 101 -49 29 -88 54 -88 57 0 5
461 796 471 808 8 9 117 -54 297 -172 l113 -74 -17 -26 c-9 -15 -32 -48 -50
-75 -19 -26 -34 -50 -34 -55 0 -4 28 -27 62 -51 l62 -44 28 34 c16 19 44 57
62 84 31 48 32 54 28 130 l-3 80 -127 84 c-168 113 -382 241 -401 241 -9 0
-45 -13 -81 -28z"/>
<path d="M14282 15283 l-41 -56 40 -30 40 -29 -28 -37 c-15 -20 -150 -190
-300 -379 -204 -257 -273 -350 -273 -370 0 -15 -3 -49 -6 -77 l-6 -50 69 -56
c37 -31 123 -109 189 -173 67 -64 130 -116 140 -116 9 0 46 5 80 11 l63 11
278 265 c153 146 308 295 345 331 l68 66 38 -37 38 -37 49 50 49 50 -134 135
-135 135 -50 -50 -49 -50 37 -38 37 -37 -335 -335 -334 -334 -78 75 c-43 41
-113 105 -156 143 -43 38 -76 75 -73 82 5 13 595 714 601 714 3 0 21 -14 41
-32 l36 -32 44 50 c24 27 42 54 40 59 -2 10 -238 208 -267 225 -12 7 -25 -3
-57 -47z"/>
<path d="M17267 15238 l-126 -92 45 -63 45 -63 -61 -132 c-104 -225 -357 -703
-398 -750 -14 -16 -204 -138 -215 -138 -3 0 -20 24 -37 53 -18 28 -34 54 -36
56 -2 2 -62 -34 -134 -79 l-130 -83 17 -26 c43 -66 182 -308 250 -438 l75
-144 127 67 c69 36 130 69 134 74 5 4 -5 35 -22 68 l-31 60 116 62 115 61 207
-11 c205 -10 536 -40 705 -63 l89 -12 30 -73 c17 -39 36 -72 42 -72 11 0 267
107 274 115 12 12 -341 745 -360 745 -5 0 -68 -32 -139 -71 l-129 -70 26 -51
c14 -27 24 -51 22 -53 -2 -1 -134 -5 -295 -9 l-292 -6 127 204 c70 112 141
227 158 256 l31 53 28 -52 c16 -28 32 -51 36 -51 11 0 259 150 259 157 0 18
-300 486 -400 625 l-27 37 -126 -91z"/>
<path d="M6365 15127 c-71 -62 -211 -192 -310 -289 l-180 -177 50 -50 49 -51
38 37 37 36 38 -33 c21 -19 174 -166 340 -328 l302 -295 -28 -34 -29 -35 50
-46 49 -46 105 105 c57 57 103 107 102 110 -2 4 -23 28 -47 54 l-43 47 -33
-32 -32 -31 -117 123 -117 123 83 78 c46 42 98 89 115 103 l33 26 101 -88 c56
-49 113 -99 128 -111 l26 -21 -27 -29 -27 -28 44 -50 c34 -39 47 -48 58 -40
39 27 217 181 217 188 0 5 -17 30 -37 55 -21 26 -38 49 -40 51 -1 2 -16 -9
-34 -23 -17 -15 -35 -26 -39 -24 -4 2 -60 54 -125 115 -112 107 -117 114 -102
131 18 19 23 91 11 149 -3 18 -69 111 -155 221 l-149 190 -69 16 c-39 9 -78
16 -88 16 -10 -1 -76 -51 -148 -113z m315 -199 c73 -90 140 -171 148 -180 13
-16 11 -20 -19 -45 -19 -15 -78 -68 -133 -118 -54 -49 -118 -108 -143 -129
l-45 -39 -60 59 c-33 32 -105 108 -161 168 l-102 109 80 75 c105 99 288 261
296 262 3 0 66 -73 139 -162z"/>
<path d="M10000 15064 c-886 -95 -1698 -415 -2405 -947 -425 -320 -820 -737
-1110 -1172 -174 -262 -359 -610 -464 -875 l-49 -125 -2041 -3 -2041 -2 0
-490 0 -490 250 0 250 0 0 240 0 240 1710 0 c1087 0 1710 -3 1710 -10 0 -5 -9
-49 -20 -97 -32 -137 -77 -412 -97 -593 -13 -123 -17 -245 -17 -480 0 -235 4
-357 17 -480 37 -335 108 -685 198 -966 22 -67 39 -124 39 -128 0 -3 -796 -6
-1770 -6 l-1770 0 0 880 0 880 -250 0 -250 0 0 -1130 0 -1130 2122 2 2123 3
76 -146 c173 -333 388 -651 632 -934 52 -60 93 -113 91 -116 -2 -4 -21 -10
-41 -14 -43 -8 -763 -212 -1100 -312 -155 -46 -223 -70 -223 -80 0 -17 55
-200 367 -1228 63 -209 122 -404 131 -432 8 -29 20 -53 27 -53 6 0 67 23 136
51 299 121 837 279 1159 339 446 83 823 140 1160 175 661 67 952 84 1629 94
1091 16 1802 -26 2861 -170 409 -56 918 -165 1293 -278 161 -49 458 -155 516
-185 17 -9 37 -16 45 -16 16 0 13 -8 236 700 61 195 156 492 210 660 55 168
102 317 105 331 7 30 39 17 -295 130 -323 110 -476 152 -890 244 -91 20 -173
40 -182 43 -14 6 1 27 78 117 245 282 474 621 639 945 l66 130 2119 0 2120 0
0 500 0 500 -250 0 -250 0 0 -250 0 -250 -1765 0 c-971 0 -1765 2 -1765 5 0 3
18 65 41 138 159 516 230 1032 215 1557 -3 124 -10 272 -16 330 -16 167 -60
443 -95 593 l-32 137 1709 0 1708 0 0 -870 0 -870 250 0 250 0 0 1120 0 1120
-2035 2 -2036 3 -49 125 c-71 176 -232 499 -335 670 -741 1229 -1979 2067
-3380 2289 -138 22 -401 51 -460 51 l-35 0 0 -264 0 -263 98 -7 c53 -4 162
-16 242 -27 1211 -169 2297 -855 2979 -1879 478 -719 721 -1523 721 -2385 0
-1099 -409 -2136 -1161 -2942 -63 -67 -137 -141 -164 -166 l-50 -44 -205 33
c-113 18 -295 47 -405 64 -294 46 -378 60 -382 64 -2 1 38 43 89 92 335 320
506 527 695 840 261 433 413 867 502 1429 38 243 42 771 7 1008 -32 216 -124
570 -190 731 -19 44 -51 126 -71 181 -21 55 -51 123 -66 151 -16 28 -29 65
-29 82 0 47 25 55 134 47 178 -14 334 -118 456 -302 38 -56 79 -126 93 -155
120 -255 175 -420 218 -648 64 -344 61 -612 -16 -1117 -54 -360 -302 -998
-529 -1362 -96 -153 -91 -145 -78 -137 19 12 137 185 218 322 165 277 302 605
393 939 155 571 180 1173 70 1655 -102 445 -225 704 -433 915 -157 158 -368
244 -616 251 -69 2 -131 3 -138 4 -7 0 -19 8 -26 18 -179 220 -209 263 -200
285 6 16 94 39 266 68 130 23 289 22 408 -1 83 -16 260 -76 352 -119 111 -53
119 -45 26 27 -129 98 -342 179 -546 207 -144 19 -379 19 -507 0 -174 -27
-160 -32 -284 84 -60 55 -114 114 -121 130 -10 24 -8 40 10 97 30 96 26 239
-9 362 -13 43 -73 151 -127 227 -43 61 -173 193 -254 257 -141 111 -366 217
-611 287 -312 88 -460 113 -754 127 -71 3 -141 9 -155 13 -14 4 -41 3 -60 -2
-31 -9 -14 -13 130 -28 160 -18 243 -28 400 -48 41 -6 109 -20 150 -31 41 -12
100 -28 130 -36 260 -69 537 -225 675 -379 109 -123 175 -291 175 -451 0 -56
-4 -68 -25 -89 -13 -14 -31 -25 -39 -25 -9 0 -91 42 -183 93 -93 51 -207 114
-254 140 -92 50 -480 210 -539 222 -19 4 -81 20 -137 35 -149 42 -493 97 -688
111 -323 23 -589 3 -1045 -76 -301 -53 -714 -216 -1050 -413 -92 -54 -404
-272 -524 -365 -111 -87 -408 -389 -395 -402 3 -2 56 46 119 106 210 202 528
433 785 570 198 106 453 221 564 255 416 126 719 174 1110 174 478 0 807 -62
1314 -245 275 -99 282 -103 432 -191 145 -84 173 -108 181 -150 6 -31 3 -40
-17 -55 -48 -38 -135 -51 -584 -89 -66 -6 -320 -22 -565 -36 -486 -27 -581
-36 -986 -88 -587 -77 -1171 -265 -1540 -497 -221 -139 -494 -349 -642 -494
-160 -156 -239 -250 -388 -463 -249 -356 -397 -735 -468 -1192 -16 -106 -30
-287 -21 -279 3 4 21 84 39 180 93 475 185 715 417 1089 100 160 229 316 382
458 122 114 371 319 459 378 89 60 344 193 478 249 377 159 698 243 1085 284
333 36 517 41 1240 39 614 -3 721 -1 867 15 211 22 337 54 547 136 58 23 118
41 134 41 42 0 117 -76 117 -117 0 -38 -17 -52 -115 -92 -44 -18 -197 -92
-340 -165 -402 -204 -854 -507 -1235 -826 -582 -489 -1097 -1023 -1484 -1539
-307 -409 -467 -660 -661 -1035 -85 -166 -112 -242 -55 -156 16 25 30 48 30
52 0 8 134 225 199 322 25 37 62 92 81 121 114 174 358 499 479 640 702 818
1391 1435 2150 1927 207 134 297 184 566 318 462 229 563 266 611 224 42 -37
204 -246 210 -271 10 -37 -2 -50 -98 -118 -116 -82 -187 -142 -243 -205 -240
-270 -364 -564 -454 -1075 -6 -33 -24 -179 -41 -325 -89 -764 -167 -1121 -355
-1610 -74 -195 -275 -551 -414 -737 -142 -191 -354 -420 -488 -530 -51 -41
-93 -77 -93 -79 0 -3 12 2 28 10 202 105 431 315 686 631 244 301 390 562 545
970 136 359 234 752 350 1401 55 305 100 458 200 682 60 135 185 314 293 418
72 71 213 167 262 180 62 15 65 10 196 -290 97 -223 162 -439 221 -730 46
-230 58 -368 59 -666 0 -291 -14 -452 -61 -685 -132 -660 -485 -1330 -954
-1814 -71 -74 -163 -161 -204 -193 -73 -58 -74 -59 -125 -53 -57 6 -524 37
-896 60 -343 21 -1276 21 -1490 0 -85 -8 -315 -26 -510 -40 -488 -34 -489 -34
-1120 -125 l-560 -81 -48 40 c-64 54 -273 284 -380 417 -741 924 -1064 2101
-901 3289 229 1676 1456 3084 3089 3544 262 74 575 130 813 147 l97 7 0 263 0
264 -57 -1 c-32 -1 -114 -7 -183 -15z m242 -8041 l53 -78 11 -508 12 -508 -40
-72 c-21 -40 -42 -75 -46 -78 -4 -4 -62 -9 -130 -11 l-122 -4 -49 75 -50 76
-26 455 c-33 595 -34 549 18 640 l42 75 120 5 c66 4 128 7 137 8 12 1 35 -24
70 -75z m622 -5 c26 -87 157 -550 199 -703 13 -49 27 -83 30 -75 3 8 11 203
18 433 l12 417 65 0 65 0 -7 -97 c-3 -54 -15 -332 -26 -618 -12 -286 -23 -539
-26 -562 l-5 -43 -54 0 c-42 0 -55 4 -59 18 -3 9 -24 87 -46 172 -23 85 -76
279 -118 430 l-77 275 -6 -310 c-4 -170 -7 -370 -8 -442 l-1 -133 -55 0 -55 0
0 660 0 660 64 0 65 0 25 -82z m-1514 -40 c48 -64 55 -79 62 -137 9 -77 5 -82
-67 -79 l-50 3 -3 43 -3 44 -47 -6 c-26 -3 -75 -8 -109 -12 -74 -7 -69 12 -48
-186 23 -211 12 -191 103 -184 42 4 95 9 118 12 l41 6 55 -76 55 -76 17 -223
18 -222 -37 -77 c-43 -89 -37 -87 -199 -91 l-99 -2 -49 67 c-41 56 -51 79 -58
130 -11 73 -7 78 61 78 l46 0 6 -41 c3 -22 7 -42 9 -44 4 -4 191 15 197 20 4
5 -14 227 -26 314 l-6 43 -71 -6 c-39 -4 -91 -9 -116 -12 l-46 -6 -56 73 -56
74 -27 226 -27 226 41 82 c23 44 42 81 44 82 1 0 202 21 262 27 6 1 35 -31 65
-70z m3474 -30 c16 -25 66 -156 66 -172 0 -11 -34 -239 -76 -506 l-77 -485
-55 -70 c-31 -38 -56 -71 -57 -72 -1 -2 -58 5 -128 14 l-126 17 -35 81 -34 82
63 502 c39 316 68 508 76 519 7 9 35 42 61 73 l47 56 137 -18 c75 -10 137 -20
138 -21z m-4483 -173 c59 -178 250 -782 309 -978 24 -76 39 -141 36 -145 -4
-3 -30 -6 -57 -7 l-51 0 -55 176 -55 175 -62 -8 c-33 -5 -71 -11 -84 -14 l-23
-5 7 -188 7 -189 -52 -7 c-29 -4 -55 -5 -58 -2 -10 11 -23 482 -26 907 l-2
425 40 6 c76 12 72 17 126 -146z m5089 79 c20 -4 32 -13 35 -27 8 -37 79 -767
86 -887 1 -18 25 87 120 519 l73 333 50 -7 c27 -3 55 -9 61 -13 8 -5 -31 -195
-133 -647 -80 -352 -147 -641 -148 -643 -3 -5 -89 9 -101 16 -7 4 -20 115 -33
267 -22 267 -58 636 -62 641 -2 1 -41 -191 -88 -428 l-85 -430 -45 7 c-25 4
-50 10 -56 13 -8 5 27 209 112 652 68 355 123 646 123 648 1 2 15 1 31 -2 17
-3 44 -9 60 -12z m-5857 -136 c9 -46 17 -88 17 -94 0 -6 -73 -26 -165 -45
-118 -24 -165 -37 -165 -47 0 -28 82 -352 89 -352 4 0 49 9 101 20 51 12 98
19 105 16 11 -4 52 -173 44 -181 -3 -2 -50 -14 -104 -25 -55 -12 -101 -23
-103 -25 -1 -1 16 -79 39 -174 32 -137 44 -171 57 -171 10 0 80 13 157 30 77
16 143 26 146 22 10 -12 41 -174 34 -180 -11 -11 -409 -92 -416 -84 -9 10
-322 1272 -317 1277 6 7 410 93 438 94 24 1 27 -4 43 -81z m6952 -98 c116 -29
213 -54 216 -56 10 -6 -45 -184 -56 -184 -6 0 -82 18 -169 41 -87 22 -159 39
-161 37 -11 -11 -95 -352 -88 -358 4 -4 51 -18 103 -30 52 -13 97 -24 99 -26
8 -7 -43 -176 -54 -180 -7 -3 -56 6 -109 20 -73 18 -98 21 -102 12 -18 -47
-90 -332 -85 -337 3 -4 74 -23 157 -44 l152 -37 -20 -71 c-31 -110 -36 -119
-56 -113 -9 3 -102 26 -207 52 -104 26 -191 48 -193 49 -1 1 72 289 163 639
91 351 165 640 165 643 0 2 8 2 18 -1 9 -2 112 -28 227 -56z m-7878 -105 c64
-58 72 -70 86 -125 11 -45 12 -62 4 -65 -43 -14 -99 -25 -106 -21 -5 3 -12 22
-15 41 -5 24 -12 35 -24 35 -18 0 -192 -47 -198 -53 -5 -5 96 -339 105 -349 3
-4 57 7 119 23 l113 30 68 -60 68 -61 61 -217 61 -218 -23 -85 -23 -85 -122
-33 -122 -33 -67 60 c-59 53 -70 68 -89 125 l-21 66 51 15 c28 8 54 15 58 15
3 0 12 -20 19 -44 l12 -43 96 25 c54 14 99 27 101 29 2 1 -18 79 -45 173 -36
127 -52 170 -63 170 -9 0 -57 -11 -106 -25 -50 -14 -97 -25 -105 -25 -9 0 -46
28 -83 63 l-67 62 -67 213 -67 213 23 87 c13 48 24 88 25 89 4 4 250 72 262
72 6 1 43 -28 81 -64z"/>
<path d="M9991 6893 l-44 -4 6 -72 c4 -40 14 -249 24 -466 l17 -394 99 6 c55
4 102 8 104 11 5 5 -13 650 -23 824 l-6 102 -66 -2 c-37 -1 -87 -3 -111 -5z"/>
<path d="M12546 6778 c-2 -7 -30 -206 -61 -443 -31 -236 -59 -439 -61 -451 -5
-19 1 -22 96 -33 56 -7 103 -11 105 -9 4 3 143 911 140 915 0 1 -34 7 -75 13
-41 6 -90 13 -108 16 -21 3 -34 1 -36 -8z"/>
<path d="M8296 6350 c4 -96 7 -176 8 -177 6 -7 96 12 96 21 0 6 -25 83 -55
171 l-55 160 6 -175z"/>
<path d="M3240 14979 c-80 -125 -113 -203 -114 -274 l-1 -59 -48 -24 c-59 -30
-103 -83 -173 -209 -97 -174 -221 -427 -238 -482 -31 -106 -15 -226 40 -298
32 -43 20 -37 710 -337 501 -217 523 -226 585 -226 79 0 149 30 200 86 19 22
93 152 164 289 126 245 129 251 129 317 1 64 2 67 28 72 15 3 46 24 68 47 45
46 151 200 145 210 -12 19 -768 520 -774 512 -126 -186 -337 -551 -325 -562 5
-5 62 -38 127 -74 l117 -66 44 77 c25 42 48 83 53 90 11 17 254 -128 265 -158
6 -17 -10 -54 -69 -163 -117 -217 -122 -225 -143 -232 -13 -4 -158 65 -481
229 -254 130 -467 241 -475 247 -8 6 -14 21 -14 32 0 41 201 411 236 433 23
16 28 14 126 -42 57 -33 108 -60 113 -62 6 -1 28 28 50 65 21 37 72 118 112
181 41 63 72 116 71 117 -18 17 -454 338 -463 341 -7 3 -34 -29 -65 -77z"/>
<path d="M15192 14424 l-52 -46 29 -36 29 -37 -349 -295 c-192 -162 -356 -299
-363 -304 -10 -7 -21 -1 -38 19 l-25 29 -52 -44 c-28 -24 -51 -45 -51 -48 0
-2 28 -39 63 -81 89 -107 237 -307 320 -431 38 -58 73 -109 78 -114 8 -9 279
153 279 167 0 10 -79 127 -86 127 -3 0 -38 -22 -79 -50 l-74 -50 -79 113 c-44
61 -102 141 -130 177 -40 50 -48 68 -39 77 23 22 302 243 307 243 5 -1 119
-151 194 -256 l36 -51 -40 -28 c-22 -15 -40 -32 -40 -37 0 -5 15 -31 33 -58
l33 -49 140 90 c76 50 143 94 147 99 8 7 -59 120 -70 120 -2 0 -23 -13 -47
-29 l-42 -29 -35 51 c-18 28 -71 100 -117 160 -46 60 -82 110 -80 112 2 1 72
57 156 124 l153 121 41 -52 c79 -100 258 -353 258 -365 0 -7 -31 -34 -70 -59
-38 -26 -70 -52 -70 -57 0 -16 81 -137 91 -137 15 0 269 162 269 172 0 14
-134 216 -240 363 -78 107 -217 285 -315 402 l-20 24 -53 -47z"/>
<path d="M5563 14293 c-143 -178 -393 -527 -393 -547 0 -3 25 -23 56 -43 55
-37 57 -37 70 -18 44 66 3 85 433 -200 215 -143 391 -264 391 -268 0 -5 -9
-22 -20 -37 l-20 -28 57 -36 c32 -20 60 -36 63 -36 3 0 28 35 55 77 59 91 228
320 307 415 l56 68 -20 77 -20 78 -364 323 -363 322 -85 0 -85 0 -118 -147z
m552 -306 c224 -189 353 -303 348 -310 -4 -7 -39 -52 -78 -102 -39 -49 -95
-123 -124 -162 -29 -40 -54 -73 -56 -73 -4 0 -754 528 -767 539 -13 12 296
415 313 409 4 -2 168 -137 364 -301z"/>
<path d="M3210 12924 c-100 -25 -964 -230 -1038 -246 -24 -6 -42 -11 -40 -13
2 -2 100 -18 218 -35 422 -61 615 -90 628 -95 12 -4 -19 -62 -104 -190 -21
-30 -34 -58 -31 -61 6 -7 1197 284 1209 295 7 6 -660 86 -825 99 -31 2 -60 9
-63 14 -3 5 32 59 78 121 46 62 88 118 92 125 10 17 -11 14 -124 -14z"/>
<path d="M17586 12878 c4 -7 46 -63 92 -125 46 -62 81 -116 78 -121 -3 -5 -32
-12 -63 -14 -165 -13 -832 -93 -825 -99 12 -11 1203 -302 1209 -295 3 3 -10
31 -31 61 -85 128 -116 186 -104 190 14 5 66 13 528 80 168 25 309 45 314 45
28 0 -24 14 -254 69 -140 33 -407 96 -594 141 -186 44 -343 80 -348 80 -5 0
-6 -6 -2 -12z"/>
<path d="M3685 11131 c-49 -23 -76 -51 -108 -116 -47 -94 -48 -117 -45 -995
l3 -825 23 -56 c12 -30 38 -74 57 -96 59 -69 76 -73 307 -73 111 0 220 5 240
11 23 6 49 23 65 43 l26 34 31 -33 c36 -37 100 -55 201 -55 l65 0 0 580 0 580
-240 0 -240 0 0 -180 0 -180 75 0 75 0 0 -178 c0 -237 12 -222 -179 -222 -126
0 -151 3 -162 17 -12 13 -14 131 -14 673 0 542 2 660 14 673 11 14 36 17 162
17 136 0 149 -2 159 -19 5 -11 10 -86 10 -170 l0 -151 165 0 165 0 0 371 0
372 -83 -5 c-99 -7 -171 -34 -189 -72 l-11 -26 -36 39 c-22 24 -52 43 -76 50
-23 6 -121 11 -230 11 -163 0 -196 -3 -230 -19z"/>
<path d="M16270 10950 l0 -200 55 0 c48 0 55 -3 60 -22 20 -90 285 -1683 285
-1716 l0 -42 235 0 235 0 0 49 c0 37 261 1602 285 1709 5 19 12 22 60 22 l55
0 0 200 0 200 -265 0 -265 0 0 -200 0 -200 40 0 c22 0 40 -2 40 -4 0 -38 -172
-1212 -179 -1219 -5 -5 -11 -5 -15 1 -6 10 -176 1179 -176 1209 0 8 14 13 40
13 l40 0 0 200 0 200 -265 0 -265 0 0 -200z"/>
<path d="M2711 7827 c-36 -111 -69 -208 -74 -214 -7 -10 -65 -13 -228 -13
-121 0 -219 -3 -219 -7 0 -5 81 -66 179 -137 169 -122 178 -131 171 -155 -4
-14 -35 -111 -69 -215 -34 -103 -60 -190 -57 -193 2 -2 86 55 186 127 99 73
186 129 193 126 7 -3 89 -61 182 -130 94 -68 173 -122 176 -120 4 2 -24 99
-62 216 -38 117 -69 213 -69 214 0 0 81 59 180 130 98 71 179 132 180 137 0 4
-101 7 -225 7 l-224 0 -69 212 c-37 116 -72 213 -77 215 -6 1 -39 -89 -74
-200z"/>
<path d="M4131 7827 c-36 -111 -69 -208 -74 -214 -7 -10 -65 -13 -228 -13
-121 0 -219 -3 -219 -7 0 -5 81 -66 179 -137 169 -122 178 -131 171 -155 -4
-14 -35 -111 -69 -215 -34 -103 -60 -190 -57 -193 2 -2 86 55 186 127 99 73
186 129 193 126 7 -3 89 -61 182 -130 94 -68 173 -122 176 -120 4 2 -24 99
-62 216 -38 117 -69 213 -69 214 0 0 81 59 180 130 98 71 179 132 180 137 0 4
-101 7 -225 7 l-224 0 -69 212 c-37 116 -72 213 -77 215 -6 1 -39 -89 -74
-200z"/>
<path d="M5531 7827 c-36 -111 -69 -208 -74 -214 -7 -10 -65 -13 -228 -13
-121 0 -219 -3 -219 -7 0 -5 81 -66 179 -137 169 -122 178 -131 171 -155 -4
-14 -35 -111 -69 -215 -34 -103 -60 -190 -57 -193 2 -2 86 55 186 127 99 73
186 129 193 126 7 -3 89 -61 182 -130 94 -68 173 -122 176 -120 4 2 -24 99
-62 216 -38 117 -69 213 -69 214 0 0 81 59 180 130 98 71 179 132 180 137 0 4
-101 7 -225 7 l-224 0 -69 212 c-37 116 -72 213 -77 215 -6 1 -39 -89 -74
-200z"/>
<path d="M15311 7827 c-36 -111 -69 -208 -74 -214 -7 -10 -65 -13 -228 -13
-121 0 -219 -3 -219 -7 0 -5 81 -66 179 -137 169 -122 178 -131 171 -155 -4
-14 -35 -111 -69 -215 -34 -103 -60 -190 -57 -193 2 -2 86 55 186 127 99 73
186 129 193 126 7 -3 89 -61 182 -130 94 -68 173 -122 176 -120 4 2 -24 99
-62 216 -38 117 -69 213 -69 214 0 0 81 59 180 130 98 71 179 132 180 137 0 4
-101 7 -225 7 l-224 0 -69 212 c-37 116 -72 213 -77 215 -6 1 -39 -89 -74
-200z"/>
<path d="M16731 7827 c-36 -111 -69 -208 -74 -214 -7 -10 -65 -13 -228 -13
-121 0 -219 -3 -219 -7 0 -5 81 -66 179 -137 169 -122 178 -131 171 -155 -4
-14 -35 -111 -69 -215 -34 -103 -60 -190 -57 -193 2 -2 86 55 186 127 99 73
186 129 193 126 7 -3 89 -61 182 -130 94 -68 173 -122 176 -120 4 2 -24 99
-62 216 -38 117 -69 213 -69 214 0 0 81 59 180 130 98 71 179 132 180 137 0 4
-101 7 -225 7 l-224 0 -69 212 c-37 116 -72 213 -77 215 -6 1 -39 -89 -74
-200z"/>
<path d="M18131 7827 c-36 -111 -69 -208 -74 -214 -7 -10 -65 -13 -228 -13
-121 0 -219 -3 -219 -7 0 -5 81 -66 179 -137 169 -122 178 -131 171 -155 -4
-14 -35 -111 -69 -215 -34 -103 -60 -190 -57 -193 2 -2 86 55 186 127 99 73
186 129 193 126 7 -3 89 -61 182 -130 94 -68 173 -122 176 -120 4 2 -24 99
-62 216 -38 117 -69 213 -69 214 0 0 81 59 180 130 98 71 179 132 180 137 0 4
-101 7 -225 7 l-224 0 -69 212 c-37 116 -72 213 -77 215 -6 1 -39 -89 -74
-200z"/>
<path d="M5435 5610 c-44 -16 -181 -65 -305 -109 -124 -44 -263 -94 -310 -111
-129 -47 -583 -233 -685 -280 -49 -23 -110 -51 -135 -62 -111 -50 -374 -175
-585 -278 -126 -61 -240 -116 -253 -121 -52 -20 -14 -39 218 -109 58 -17 191
-59 295 -92 105 -33 233 -73 285 -90 52 -16 128 -41 168 -55 l72 -26 -6 -36
c-4 -20 -31 -106 -61 -191 -92 -261 -143 -412 -169 -490 -13 -41 -27 -82 -30
-90 -19 -44 -74 -207 -74 -217 0 -23 25 -14 206 73 564 271 810 380 1254 554
442 173 523 202 960 334 173 52 367 111 430 131 63 20 136 43 162 51 26 8 49
18 52 23 3 4 -8 61 -24 127 -16 65 -37 155 -48 199 -13 56 -23 81 -35 83 -8 2
-190 -47 -404 -108 -422 -121 -489 -140 -503 -140 -11 0 -30 43 -65 145 -28
81 -106 306 -230 663 -48 138 -91 252 -94 251 -3 0 -42 -13 -86 -29z"/>
<path d="M15464 5605 c-8 -19 -91 -254 -184 -522 -94 -268 -176 -493 -183
-500 -16 -15 -37 -11 -367 80 -375 103 -539 147 -549 147 -5 0 -18 -35 -29
-77 -70 -264 -72 -274 -62 -293 8 -14 71 -39 233 -90 1190 -381 1868 -647
2671 -1047 116 -58 151 -72 158 -61 12 19 6 40 -82 268 -192 502 -260 686
-266 719 -8 37 15 77 48 86 13 3 86 26 163 50 77 24 293 91 479 149 187 58
343 109 348 114 16 16 -501 277 -862 437 -91 40 -186 82 -210 92 -161 72 -211
94 -260 113 -109 43 -511 187 -878 316 l-153 53 -15 -34z"/>
<path d="M2196 5198 c-9 -29 -169 -528 -186 -578 -40 -118 -149 -459 -170
-527 -12 -40 -31 -84 -42 -98 l-19 -25 -629 0 c-346 0 -635 -3 -644 -6 -9 -3
-16 -12 -16 -19 0 -11 90 -81 225 -175 17 -12 114 -83 216 -158 102 -75 197
-144 209 -152 13 -8 84 -60 159 -116 75 -55 157 -115 184 -133 26 -17 47 -39
47 -48 0 -17 -36 -146 -49 -178 -15 -34 -131 -387 -147 -444 -12 -45 -110
-346 -179 -552 -9 -25 -13 -53 -9 -62 7 -18 29 -23 38 -8 3 5 32 26 63 47 32
21 72 48 88 62 53 42 368 272 435 316 36 24 74 53 84 65 11 11 23 21 27 21 5
0 82 54 171 120 89 67 167 119 173 118 5 -2 64 -43 130 -91 160 -117 550 -401
598 -435 21 -15 68 -49 105 -77 133 -99 213 -155 222 -155 21 0 20 44 -3 112
-14 40 -39 120 -57 178 -37 122 -118 366 -130 395 -5 11 -18 54 -30 95 -12 41
-25 84 -30 95 -5 11 -15 43 -24 70 -8 28 -34 105 -56 171 -22 67 -40 128 -40
135 0 8 32 37 71 64 39 28 88 64 109 80 22 17 63 47 92 68 79 56 310 224 337
244 13 10 34 25 46 33 12 8 33 23 46 33 13 10 83 60 154 112 178 128 204 152
185 165 -10 6 -244 10 -651 10 -593 0 -637 1 -651 18 -8 9 -35 78 -58 152 -24
74 -80 248 -125 385 -45 138 -110 338 -145 445 -34 107 -66 205 -71 218 -9 24
-47 31 -53 10z m-58 -1438 l32 -50 0 -175 0 -175 -36 -55 -37 -55 -98 0 -99 0
0 -80 0 -80 65 0 65 0 0 55 0 55 70 0 70 0 0 -160 0 -160 -206 2 -205 3 1 234
c1 242 2 248 47 309 l24 32 100 0 99 0 0 75 0 75 -65 0 -65 0 0 -55 0 -55 -70
0 -69 0 -3 103 c-3 101 -3 102 31 155 l34 52 141 0 141 0 33 -50z m442 3 l30
-48 0 -368 0 -367 -32 -50 -33 -50 -135 0 -136 0 -32 53 -32 53 0 364 0 363
31 49 31 48 139 0 139 0 30 -47z"/>
<path d="M2350 3350 l0 -260 60 0 60 0 0 260 0 260 -60 0 -60 0 0 -260z"/>
<path d="M18796 5198 c-3 -7 -25 -74 -49 -148 -24 -74 -73 -223 -107 -330 -34
-107 -86 -267 -115 -355 -29 -88 -67 -205 -85 -260 -17 -55 -39 -108 -47 -117
-15 -17 -59 -18 -653 -18 -544 0 -639 -2 -650 -14 -11 -14 43 -60 230 -192 19
-14 107 -78 195 -142 88 -65 216 -158 285 -207 69 -49 163 -118 210 -152 47
-34 94 -68 104 -76 18 -12 18 -16 3 -72 -8 -33 -25 -87 -36 -120 -33 -96 -157
-476 -217 -670 -9 -27 -20 -59 -24 -70 -5 -11 -23 -65 -40 -120 -18 -55 -38
-118 -46 -140 -35 -101 -10 -104 118 -11 56 41 137 99 178 129 112 81 361 264
394 289 16 13 37 27 47 33 10 5 84 59 164 118 80 59 151 110 158 113 12 4 76
-41 472 -330 72 -52 180 -131 240 -175 61 -44 135 -99 165 -121 168 -125 180
-132 195 -120 17 14 19 33 6 58 -11 21 -31 81 -66 197 -15 50 -55 176 -90 280
-156 470 -225 687 -225 703 0 16 167 146 345 269 83 57 242 173 291 212 28 22
81 61 117 85 36 24 72 49 79 55 7 6 60 45 116 87 86 62 102 77 92 89 -11 13
-104 15 -650 15 -718 0 -654 -7 -683 80 -8 25 -19 56 -25 70 -5 14 -17 50 -25
80 -9 30 -41 129 -71 220 -29 91 -75 233 -101 315 -26 83 -53 165 -61 183 -8
18 -14 39 -14 47 0 8 -6 29 -14 47 -8 18 -25 69 -39 113 -19 65 -28 81 -46 83
-11 2 -23 -3 -25 -10z m-61 -1440 l35 -53 0 -169 0 -168 -36 -59 -35 -59 -105
0 -104 0 0 -80 0 -80 70 0 70 0 0 55 0 56 68 -3 67 -3 3 -157 3 -158 -211 0
-210 0 0 233 0 234 38 54 38 54 102 3 102 3 0 74 0 75 -70 0 -70 0 0 -55 0
-55 -70 0 -70 0 0 103 c0 101 1 103 35 155 l36 52 139 0 139 0 36 -52z m453
-2 l32 -54 0 -147 c0 -121 -3 -152 -17 -176 -16 -27 -16 -31 0 -58 14 -24 17
-55 17 -178 l0 -149 -36 -57 -36 -57 -133 0 -133 0 -36 58 c-36 57 -37 57 -34
157 l3 100 68 3 67 3 0 -56 0 -55 65 0 65 0 0 80 0 80 -70 0 -70 0 0 105 0
105 70 0 70 0 0 75 0 75 -65 0 -65 0 0 -55 0 -55 -70 0 -70 0 0 103 c0 101 1
103 35 155 l36 52 137 0 137 0 33 -54z"/>
<path d="M8830 4740 l0 -100 1645 0 1645 0 0 100 0 100 -1645 0 -1645 0 0
-100z"/>
<path d="M8830 4200 l0 -100 1645 0 1645 0 0 100 0 100 -1645 0 -1645 0 0
-100z"/>
<path d="M4677 3038 c-18 -29 -59 -94 -90 -143 l-57 -91 0 -964 0 -965 89
-140 88 -140 269 -3 269 -2 88 138 87 139 0 217 0 216 -110 0 -110 0 0 -180 0
-180 -225 0 -225 0 0 900 0 900 225 0 225 0 0 -180 0 -180 110 0 110 0 0 216
0 217 -87 138 -88 139 -267 0 -267 0 -34 -52z"/>
<path d="M6100 1840 l0 -1250 110 0 110 0 0 535 0 535 225 0 225 0 0 -535 0
-535 110 0 110 0 0 1250 0 1250 -110 0 -110 0 0 -540 0 -540 -225 0 -225 0 0
540 0 540 -110 0 -110 0 0 -1250z"/>
<path d="M8070 3080 c0 -5 -83 -544 -185 -1197 -102 -654 -189 -1212 -194
-1241 l-8 -53 111 3 110 3 56 355 55 355 167 3 c167 2 168 2 173 -20 7 -34
105 -671 105 -685 0 -10 29 -13 110 -13 108 0 110 0 109 23 0 12 -87 573 -192
1247 l-192 1225 -112 3 c-72 2 -113 -1 -113 -8z m174 -1087 l52 -333 -114 0
-114 0 6 28 c3 15 26 158 51 317 54 353 57 366 63 340 2 -11 28 -170 56 -352z"/>
<path d="M9360 1840 l0 -1250 110 0 110 0 0 763 c0 419 4 755 9 747 4 -8 93
-349 196 -757 104 -409 189 -742 191 -740 1 1 86 333 188 737 103 404 191 744
196 755 5 12 9 -280 9 -742 l1 -763 110 0 110 0 0 1250 0 1251 -112 -3 -113
-3 -191 -750 c-104 -412 -193 -756 -195 -764 -5 -14 -36 104 -277 1054 l-117
460 -112 3 -113 3 0 -1251z"/>
<path d="M11270 1840 l0 -1250 110 0 110 0 0 535 0 535 248 0 247 0 88 139 87
138 0 438 0 438 -87 138 -88 139 -357 0 -358 0 0 -1250z m670 535 l0 -365
-225 0 -225 0 0 365 0 365 225 0 225 0 0 -365z"/>
<path d="M12840 1840 l0 -1250 110 0 110 0 0 1250 0 1250 -110 0 -110 0 0
-1250z"/>
<path d="M13887 3038 c-18 -29 -59 -94 -90 -143 l-57 -91 0 -964 0 -965 89
-140 88 -140 269 -3 269 -2 88 138 87 139 0 973 0 973 -87 138 -88 139 -267 0
-267 0 -34 -52z m523 -1198 l0 -900 -225 0 -225 0 0 900 0 900 225 0 225 0 0
-900z"/>
<path d="M15320 1840 l0 -1250 110 0 110 0 0 852 c0 469 4 848 8 842 5 -5 131
-388 282 -852 l274 -842 108 0 108 0 0 1250 0 1250 -110 0 -110 0 0 -852 -1
-853 -277 852 -277 853 -112 0 -113 0 0 -1250z"/>
</g>
</svg>
